#Comment line ignore any data following # character 
#Hierarchical Translation and Rotation (.htr) file 
[Header]	
#Header keywords are followed by a single value 
FileType HTR		#Single word string
DataType HTRS		#Translation followed by rotation and scale data
FileVersion 1		#integer
NumSegments 84		#integer
NumFrames 2		#integer
DataFrameRate 30		#integer, data frame rate in this file
EulerRotationOrder ZYX
CalibrationUnits mm
RotationUnits Degrees
GlobalAxisofGravity Y
BoneLengthAxis Y
ScaleFactor 1.00
[SegmentNames&Hierarchy]
#CHILD	PARENT
MASTER GLOBAL
root MASTER
chest root
L_mid_tent01 root
R_mid_tent01 root
spine01 root
Bip01_Neck chest
L_humerus chest
R_humerus chest
weapon_bone chest
Bip01_Head Bip01_Neck
eye_left_bone Bip01_Head
eye_right_bone Bip01_Head
L_forearm L_humerus
L_front_hand L_forearm
L_weapon_bone L_forearm
L_front_hand01_01 L_front_hand
L_front_hand02_01 L_front_hand
L_front_hand03_01 L_front_hand
L_front_hand01_02 L_front_hand01_01
L_front_hand02_02 L_front_hand02_01
L_front_hand03_02 L_front_hand03_01
R_forearm R_humerus
R_front_hand R_forearm
R_weapon_bone R_forearm
R_front_hand01_01 R_front_hand
R_front_hand02_01 R_front_hand
R_front_hand03_01 R_front_hand
R_front_hand01_02 R_front_hand01_01
R_front_hand02_02 R_front_hand02_01
R_front_hand03_02 R_front_hand03_01
null_rope01_connect L_mid_tent01
Rope1_Seg01 null_rope01_connect
Rope1_Seg02 Rope1_Seg01
Rope1_Seg03 Rope1_Seg02
Rope1_Seg04 Rope1_Seg03
Rope1_Seg05 Rope1_Seg04
Rope1_Seg06 Rope1_Seg05
Rope1_Seg07 Rope1_Seg06
Rope1_Seg09 Rope1_Seg07
L_mid_hand01 Rope1_Seg09
L_mid_hand02 Rope1_Seg09
L_mid_hand03 Rope1_Seg09
null_rope02_connect R_mid_tent01
Rope2_Seg01 null_rope02_connect
Rope2_Seg02 Rope2_Seg01
Rope2_Seg03 Rope2_Seg02
Rope2_Seg04 Rope2_Seg03
Rope2_Seg05 Rope2_Seg04
Rope2_Seg06 Rope2_Seg05
Rope2_Seg07 Rope2_Seg06
Rope2_Seg09 Rope2_Seg07
R_mid_hand01 Rope2_Seg09
R_mid_hand02 Rope2_Seg09
R_mid_hand03 Rope2_Seg09
spine02 spine01
spine03 spine02
pelvis spine03
null_rope03_connect pelvis
null_rope04_connect pelvis
Rope3_Seg01 null_rope03_connect
Rope3_Seg02 Rope3_Seg01
Rope3_Seg03 Rope3_Seg02
Rope3_Seg04 Rope3_Seg03
Rope3_Seg05 Rope3_Seg04
Rope3_Seg06 Rope3_Seg05
Rope3_Seg07 Rope3_Seg06
Rope3_Seg08 Rope3_Seg07
Rope3_Seg09 Rope3_Seg08
R_rear_hand01 Rope3_Seg09
R_rear_hand02 Rope3_Seg09
R_rear_hand03 Rope3_Seg09
Rope4_Seg01 null_rope04_connect
Rope4_Seg02 Rope4_Seg01
Rope4_Seg03 Rope4_Seg02
Rope4_Seg04 Rope4_Seg03
Rope4_Seg05 Rope4_Seg04
Rope4_Seg06 Rope4_Seg05
Rope4_Seg07 Rope4_Seg06
Rope4_Seg08 Rope4_Seg07
Rope4_Seg09 Rope4_Seg08
L_rear_hand01 Rope4_Seg09
L_rear_hand02 Rope4_Seg09
L_rear_hand03 Rope4_Seg09
[BasePosition]
#SegmentName Tx, Ty, Tz, Rx, Ry, Rz, BoneLength
MASTER 0.000000 0.000000 0.000000 -90.000000 0.000000 0.000000 10.000000 
root 0.000000 0.000000 0.000000 0.000000 0.000000 0.000000 10.000000 
chest 0.000000 0.000000 0.000000 0.000000 0.000000 0.000000 10.000000 
L_mid_tent01 0.000000 0.000000 0.000000 0.000000 0.000000 0.000000 10.000000 
R_mid_tent01 0.000000 0.000000 0.000000 0.000000 0.000000 0.000000 10.000000 
spine01 0.000000 0.000000 0.000000 0.000000 0.000000 0.000000 10.000000 
Bip01_Neck 0.000000 0.000000 0.000000 0.000000 0.000000 0.000000 10.000000 
L_humerus 0.000000 0.000000 0.000000 0.000000 0.000000 0.000000 10.000000 
R_humerus 0.000000 0.000000 0.000000 0.000000 0.000000 0.000000 10.000000 
weapon_bone 0.000000 0.000000 0.000000 0.000000 0.000000 0.000000 10.000000 
Bip01_Head 0.000000 0.000000 0.000000 0.000000 0.000000 0.000000 10.000000 
eye_left_bone 0.000000 0.000000 0.000000 0.000000 0.000000 0.000000 10.000000 
eye_right_bone 0.000000 0.000000 0.000000 0.000000 0.000000 0.000000 10.000000 
L_forearm 0.000000 0.000000 0.000000 0.000000 0.000000 0.000000 10.000000 
L_front_hand 0.000000 0.000000 0.000000 0.000000 0.000000 0.000000 10.000000 
L_weapon_bone 0.000000 0.000000 0.000000 0.000000 0.000000 0.000000 10.000000 
L_front_hand01_01 0.000000 0.000000 0.000000 0.000000 0.000000 0.000000 10.000000 
L_front_hand02_01 0.000000 0.000000 0.000000 0.000000 0.000000 0.000000 10.000000 
L_front_hand03_01 0.000000 0.000000 0.000000 0.000000 0.000000 0.000000 10.000000 
L_front_hand01_02 0.000000 0.000000 0.000000 0.000000 0.000000 0.000000 10.000000 
L_front_hand02_02 0.000000 0.000000 0.000000 0.000000 0.000000 0.000000 10.000000 
L_front_hand03_02 0.000000 0.000000 0.000000 0.000000 0.000000 0.000000 10.000000 
R_forearm 0.000000 0.000000 0.000000 0.000000 0.000000 0.000000 10.000000 
R_front_hand 0.000000 0.000000 0.000000 0.000000 0.000000 0.000000 10.000000 
R_weapon_bone 0.000000 0.000000 0.000000 0.000000 0.000000 0.000000 10.000000 
R_front_hand01_01 0.000000 0.000000 0.000000 0.000000 0.000000 0.000000 10.000000 
R_front_hand02_01 0.000000 0.000000 0.000000 0.000000 0.000000 0.000000 10.000000 
R_front_hand03_01 0.000000 0.000000 0.000000 0.000000 0.000000 0.000000 10.000000 
R_front_hand01_02 0.000000 0.000000 0.000000 0.000000 0.000000 0.000000 10.000000 
R_front_hand02_02 0.000000 0.000000 0.000000 0.000000 0.000000 0.000000 10.000000 
R_front_hand03_02 0.000000 0.000000 0.000000 0.000000 0.000000 0.000000 10.000000 
null_rope01_connect 0.000000 0.000000 0.000000 0.000000 0.000000 0.000000 10.000000 
Rope1_Seg01 0.000000 0.000000 0.000000 0.000000 0.000000 0.000000 10.000000 
Rope1_Seg02 0.000000 0.000000 0.000000 0.000000 0.000000 0.000000 10.000000 
Rope1_Seg03 0.000000 0.000000 0.000000 0.000000 0.000000 0.000000 10.000000 
Rope1_Seg04 0.000000 0.000000 0.000000 0.000000 0.000000 0.000000 10.000000 
Rope1_Seg05 0.000000 0.000000 0.000000 0.000000 0.000000 0.000000 10.000000 
Rope1_Seg06 0.000000 0.000000 0.000000 0.000000 0.000000 0.000000 10.000000 
Rope1_Seg07 0.000000 0.000000 0.000000 0.000000 0.000000 0.000000 10.000000 
Rope1_Seg09 0.000000 0.000000 0.000000 0.000000 0.000000 0.000000 10.000000 
L_mid_hand01 0.000000 0.000000 0.000000 0.000000 0.000000 0.000000 10.000000 
L_mid_hand02 0.000000 0.000000 0.000000 0.000000 0.000000 0.000000 10.000000 
L_mid_hand03 0.000000 0.000000 0.000000 0.000000 0.000000 0.000000 10.000000 
null_rope02_connect 0.000000 0.000000 0.000000 0.000000 0.000000 0.000000 10.000000 
Rope2_Seg01 0.000000 0.000000 0.000000 0.000000 0.000000 0.000000 10.000000 
Rope2_Seg02 0.000000 0.000000 0.000000 0.000000 0.000000 0.000000 10.000000 
Rope2_Seg03 0.000000 0.000000 0.000000 0.000000 0.000000 0.000000 10.000000 
Rope2_Seg04 0.000000 0.000000 0.000000 0.000000 0.000000 0.000000 10.000000 
Rope2_Seg05 0.000000 0.000000 0.000000 0.000000 0.000000 0.000000 10.000000 
Rope2_Seg06 0.000000 0.000000 0.000000 0.000000 0.000000 0.000000 10.000000 
Rope2_Seg07 0.000000 0.000000 0.000000 0.000000 0.000000 0.000000 10.000000 
Rope2_Seg09 0.000000 0.000000 0.000000 0.000000 0.000000 0.000000 10.000000 
R_mid_hand01 0.000000 0.000000 0.000000 0.000000 0.000000 0.000000 10.000000 
R_mid_hand02 0.000000 0.000000 0.000000 0.000000 0.000000 0.000000 10.000000 
R_mid_hand03 0.000000 0.000000 0.000000 0.000000 0.000000 0.000000 10.000000 
spine02 0.000000 0.000000 0.000000 0.000000 0.000000 0.000000 10.000000 
spine03 0.000000 0.000000 0.000000 0.000000 0.000000 0.000000 10.000000 
pelvis 0.000000 0.000000 0.000000 0.000000 0.000000 0.000000 10.000000 
null_rope03_connect 0.000000 0.000000 0.000000 0.000000 0.000000 0.000000 10.000000 
null_rope04_connect 0.000000 0.000000 0.000000 0.000000 0.000000 0.000000 10.000000 
Rope3_Seg01 0.000000 0.000000 0.000000 0.000000 0.000000 0.000000 10.000000 
Rope3_Seg02 0.000000 0.000000 0.000000 0.000000 0.000000 0.000000 10.000000 
Rope3_Seg03 0.000000 0.000000 0.000000 0.000000 0.000000 0.000000 10.000000 
Rope3_Seg04 0.000000 0.000000 0.000000 0.000000 0.000000 0.000000 10.000000 
Rope3_Seg05 0.000000 0.000000 0.000000 0.000000 0.000000 0.000000 10.000000 
Rope3_Seg06 0.000000 0.000000 0.000000 0.000000 0.000000 0.000000 10.000000 
Rope3_Seg07 0.000000 0.000000 0.000000 0.000000 0.000000 0.000000 10.000000 
Rope3_Seg08 0.000000 0.000000 0.000000 0.000000 0.000000 0.000000 10.000000 
Rope3_Seg09 0.000000 0.000000 0.000000 0.000000 0.000000 0.000000 10.000000 
R_rear_hand01 0.000000 0.000000 0.000000 0.000000 0.000000 0.000000 10.000000 
R_rear_hand02 0.000000 0.000000 0.000000 0.000000 0.000000 0.000000 10.000000 
R_rear_hand03 0.000000 0.000000 0.000000 0.000000 0.000000 0.000000 10.000000 
Rope4_Seg01 0.000000 0.000000 0.000000 0.000000 0.000000 0.000000 10.000000 
Rope4_Seg02 0.000000 0.000000 0.000000 0.000000 0.000000 0.000000 10.000000 
Rope4_Seg03 0.000000 0.000000 0.000000 0.000000 0.000000 0.000000 10.000000 
Rope4_Seg04 0.000000 0.000000 0.000000 0.000000 0.000000 0.000000 10.000000 
Rope4_Seg05 0.000000 0.000000 0.000000 0.000000 0.000000 0.000000 10.000000 
Rope4_Seg06 0.000000 0.000000 0.000000 0.000000 0.000000 0.000000 10.000000 
Rope4_Seg07 0.000000 0.000000 0.000000 0.000000 0.000000 0.000000 10.000000 
Rope4_Seg08 0.000000 0.000000 0.000000 0.000000 0.000000 0.000000 10.000000 
Rope4_Seg09 0.000000 0.000000 0.000000 0.000000 0.000000 0.000000 10.000000 
L_rear_hand01 0.000000 0.000000 0.000000 0.000000 0.000000 0.000000 10.000000 
L_rear_hand02 0.000000 0.000000 0.000000 0.000000 0.000000 0.000000 10.000000 
L_rear_hand03 0.000000 0.000000 0.000000 0.000000 0.000000 0.000000 10.000000 
#Beginning of Data. Separated by tabs
#Fr	Tx	Ty	Tz	Rx	Ry	Rz	SF
[MASTER]
3 0.000000 0.000000 0.000000 0.001660 0.001660 0.001660 0.000000
4 0.000000 0.000000 0.000000 0.001660 0.001660 0.001660 0.000000
[root]
3 -12.761441 -2.160468 1497.643311 -91.740158 13.400836 -90.225014 1497.699341
4 -9.287778 -4.309415 1495.137451 -91.740158 13.400836 -90.225014 1495.172485
[chest]
3 -84.512650 -34.090519 0.000000 -2.117274 0.462005 -179.268204 91.129311
4 -84.512650 -34.090519 0.000000 -2.117274 0.462005 -179.268204 91.129311
[L_mid_tent01]
3 27.299511 22.177458 -249.918259 -11.148351 10.628955 45.927914 252.381134
4 27.299511 22.177458 -249.918259 -11.135146 12.496180 45.766190 252.381134
[R_mid_tent01]
3 23.228794 24.509907 226.238495 -173.695557 -10.317392 48.278221 228.744751
4 23.228794 24.509907 226.238495 -173.824188 -11.540135 48.239056 228.744751
[spine01]
3 -0.361383 -0.195265 0.000000 -0.000001 -0.000007 22.052340 0.410763
4 -0.361383 -0.195265 0.000000 -0.000001 -0.000007 22.052340 0.410763
[Bip01_Neck]
3 165.484543 71.581718 0.000119 175.896118 1.177290 24.871183 180.302734
4 165.484543 71.581718 0.000119 175.896118 1.177290 24.871183 180.302734
[L_humerus]
3 -13.983130 -135.272980 -120.471481 175.474304 58.687813 -118.474754 181.680161
4 -13.983130 -135.272980 -120.471481 175.474304 58.687801 -118.474754 181.680161
[R_humerus]
3 -13.983309 -135.273102 125.287651 174.588181 -51.786880 -99.934280 184.909012
4 -13.983309 -135.273102 125.287651 174.588181 -51.786880 -99.934280 184.909012
[weapon_bone]
3 235.964890 -300.705902 0.000000 0.000000 -89.951546 -128.212341 382.234833
4 235.964890 -300.705902 0.000000 0.000000 -89.951546 -128.212341 382.234833
[Bip01_Head]
3 163.817291 272.852325 22.822264 1.693472 4.424703 -42.711670 319.069519
4 163.817291 272.852325 22.822264 1.693472 4.424703 -42.711670 319.069519
[eye_left_bone]
3 -24.626970 125.451866 -64.772606 0.000000 -90.000000 -99.840431 143.318359
4 -24.626970 125.451866 -64.772606 0.000000 -90.000000 -99.840431 143.318359
[eye_right_bone]
3 -24.626970 125.451866 64.327362 0.000000 -89.965736 80.156380 143.117676
4 -24.626970 125.451866 64.327362 0.000000 -89.965736 80.156380 143.117676
[L_forearm]
3 322.776093 0.000000 -0.000119 0.000442 -0.002305 -111.718391 322.776093
4 322.776093 0.000000 -0.000119 0.000442 -0.002305 -111.718391 322.776093
[L_front_hand]
3 241.149185 -0.042021 -3.300071 -179.659958 -2.242151 -0.019832 241.171753
4 241.149185 -0.042021 -3.300071 -179.659958 -2.242151 -0.019832 241.171753
[L_weapon_bone]
3 156.183838 0.000000 0.000000 0.000014 0.000007 0.000001 156.183838
4 156.183838 0.000000 0.000000 0.000014 0.000007 0.000001 156.183838
[L_front_hand01_01]
3 86.095154 20.947098 -0.655860 -0.366594 -0.477154 75.385574 88.609184
4 86.095154 20.947098 -0.655860 -0.366594 -0.477154 75.385574 88.609184
[L_front_hand02_01]
3 86.935165 -11.437475 24.513514 154.399796 -59.883835 -61.369587 91.046425
4 86.935165 -11.437475 24.513514 154.399796 -59.883835 -61.369587 91.046425
[L_front_hand03_01]
3 86.637497 -14.123976 -20.424902 -153.913864 58.118130 -62.702885 90.126129
4 86.637497 -14.123976 -20.424902 -153.913849 58.118122 -62.702866 90.126129
[L_front_hand01_02]
3 71.020905 -0.000179 0.000030 0.000334 -0.002323 -106.379700 71.020905
4 71.020905 -0.000179 0.000030 0.000334 -0.002323 -106.379684 71.020905
[L_front_hand02_02]
3 71.020927 -0.000119 0.000060 0.000334 -0.002323 -106.379700 71.020927
4 71.020927 -0.000119 0.000060 0.000334 -0.002323 -106.379684 71.020927
[L_front_hand03_02]
3 71.020905 -0.000060 0.000060 0.000334 -0.002323 -106.379700 71.020905
4 71.020905 -0.000060 0.000060 0.000334 -0.002323 -106.379684 71.020905
[R_forearm]
3 322.776428 -0.000060 0.000030 0.211305 0.032976 -99.623016 322.776428
4 322.776428 -0.000060 0.000030 0.211305 0.032976 -99.623016 322.776428
[R_front_hand]
3 238.847015 -0.006795 2.210259 -0.270529 1.703932 2.322530 238.857239
4 238.847015 -0.006795 2.210259 -0.270529 1.703932 2.322530 238.857239
[R_weapon_bone]
3 155.664093 0.002503 -0.000030 0.003487 0.001180 -90.988930 155.664078
4 155.664093 0.002503 -0.000030 0.003487 0.001180 -90.988930 155.664078
[R_front_hand01_01]
3 87.624611 14.231146 22.918642 -154.633499 -59.950619 61.746044 91.683487
4 87.624611 14.231146 22.918642 -154.633499 -59.950619 61.746044 91.683487
[R_front_hand02_01]
3 89.356956 14.367283 -19.491137 154.602661 58.302849 63.744389 92.579636
4 89.356956 14.367283 -19.491137 154.602661 58.302849 63.744389 92.579636
[R_front_hand03_01]
3 87.286232 -22.307278 -0.143439 0.162155 -0.423168 -75.767921 90.091743
4 87.286232 -22.307278 -0.143439 0.162155 -0.423168 -75.767921 90.091743
[R_front_hand01_02]
3 71.020905 0.000060 0.000119 0.002323 -0.000334 106.381714 71.020905
4 71.020905 0.000060 0.000119 0.002323 -0.000334 106.381714 71.020905
[R_front_hand02_02]
3 71.020844 -0.000030 -0.000119 0.002323 -0.000334 106.381714 71.020836
4 71.020844 -0.000030 -0.000119 0.002323 -0.000334 106.381714 71.020836
[R_front_hand03_02]
3 71.020905 0.000000 0.000030 0.002323 -0.000334 106.381714 71.020905
4 71.020905 0.000000 0.000030 0.002323 -0.000334 106.381714 71.020905
[null_rope01_connect]
3 328.732483 0.000000 -0.000238 164.765015 -72.962784 -135.178192 328.732483
4 328.732483 0.000000 -0.000238 169.027588 -71.624535 -139.447937 328.732483
[Rope1_Seg01]
3 0.000000 0.000000 0.000000 -115.704514 61.253506 -109.426979 0.000000
4 0.000000 0.000000 0.000000 -109.393082 61.121136 -105.148964 0.000000
[Rope1_Seg02]
3 139.999863 -0.000179 0.000000 22.280033 -9.463963 -12.953571 139.999863
4 139.999863 -0.000179 0.000000 21.498030 -9.975087 -12.435688 139.999863
[Rope1_Seg03]
3 139.999924 0.000060 -0.000060 13.674825 -10.875803 -4.949275 139.999924
4 139.999924 0.000060 -0.000060 12.875381 -10.941616 -4.626814 139.999924
[Rope1_Seg04]
3 139.999924 -0.000060 -0.000119 7.059491 -9.795191 -0.345399 139.999924
4 139.999924 -0.000060 -0.000119 6.766428 -9.902727 -0.281862 139.999924
[Rope1_Seg05]
3 139.999832 0.000119 -0.000060 0.986247 0.505383 -2.200004 139.999832
4 139.999832 0.000119 -0.000060 0.773403 0.564178 -1.992758 139.999832
[Rope1_Seg06]
3 139.999954 0.000119 -0.000060 -4.674026 10.560228 -7.488642 139.999954
4 139.999954 0.000119 -0.000060 -5.082421 10.798624 -6.857140 139.999954
[Rope1_Seg07]
3 139.999985 0.000060 0.000000 -44.436195 23.263103 -13.758305 139.999985
4 139.999985 0.000060 0.000000 -46.179066 25.214806 -13.003304 139.999985
[Rope1_Seg09]
3 121.602913 0.000119 -0.000089 -89.793175 -1.359789 0.847147 121.602913
4 121.602913 0.000119 -0.000089 -89.793175 -1.359789 0.847147 121.602913
[L_mid_hand01]
3 103.859421 1.038730 8.195221 106.855484 -31.239275 -9.461397 104.187431
4 103.859421 1.038730 8.195221 106.855484 -31.239275 -9.461397 104.187431
[L_mid_hand02]
3 105.572853 -4.139662 -10.864139 -142.331345 25.752670 -28.774628 106.211075
4 105.572853 -4.139662 -10.864139 -142.331345 25.752670 -28.774628 106.211075
[L_mid_hand03]
3 104.641464 17.579376 -3.913581 -16.122810 9.734291 34.223598 106.179977
4 104.641464 17.579376 -3.913581 -16.122810 9.734291 34.223598 106.179977
[null_rope02_connect]
3 328.732849 0.000179 -0.000119 177.108734 79.629379 -30.636154 328.732849
4 328.732849 0.000179 -0.000119 -179.154449 78.624306 -26.868502 328.732849
[Rope2_Seg01]
3 0.000000 0.000000 0.000000 125.972008 52.483940 -103.217522 0.000000
4 0.000000 0.000000 0.000000 127.467789 51.793999 -101.004936 0.000000
[Rope2_Seg02]
3 139.999741 -0.000060 -0.000119 0.020720 2.692766 -1.294007 139.999756
4 139.999741 -0.000060 -0.000119 -0.612242 0.776631 0.640481 139.999756
[Rope2_Seg03]
3 140.000107 0.000030 0.000000 -1.730294 -3.861328 4.510315 140.000107
4 140.000107 0.000030 0.000000 -2.888593 -6.459183 7.826068 140.000107
[Rope2_Seg04]
3 139.999802 0.000000 -0.000060 2.496552 13.910293 -11.114901 139.999802
4 139.999802 0.000000 -0.000060 2.285550 14.003006 -12.001299 139.999802
[Rope2_Seg05]
3 139.999985 -0.000060 0.000119 10.712037 13.967438 -13.536263 139.999985
4 139.999985 -0.000060 0.000119 12.231344 15.767965 -16.627253 139.999985
[Rope2_Seg06]
3 139.999893 -0.000030 -0.000119 8.348563 3.508438 -5.057497 139.999893
4 139.999893 -0.000030 -0.000119 9.637091 3.504780 -5.937616 139.999893
[Rope2_Seg07]
3 139.999893 0.000060 -0.000060 7.043150 1.575319 -3.177422 139.999893
4 139.999893 0.000060 -0.000060 7.856675 1.387990 -3.646747 139.999893
[Rope2_Seg09]
3 121.338966 0.000089 -0.000060 33.793236 -1.359788 -0.847141 121.338966
4 121.338966 0.000089 -0.000060 33.793236 -1.359788 -0.847141 121.338966
[R_mid_hand01]
3 104.680779 11.144459 -10.335981 -41.523792 25.424656 28.595957 105.778534
4 104.680779 11.144459 -10.335981 -41.523792 25.424656 28.595957 105.778534
[R_mid_hand02]
3 104.070427 2.443552 8.231699 72.847389 -32.746803 10.013901 104.424065
4 104.070427 2.443552 8.231699 72.847389 -32.746803 10.013901 104.424065
[R_mid_hand03]
3 106.028137 -11.221827 -5.996406 -167.901306 10.259192 -37.009720 106.788818
4 106.028137 -11.221827 -5.996406 -167.901306 10.259192 -37.009720 106.788818
[spine02]
3 129.756927 0.001550 0.000119 0.360061 -4.044797 -12.915058 129.756927
4 129.756927 0.001550 0.000119 0.360061 -4.044797 -12.915058 129.756927
[spine03]
3 78.613846 0.087372 -4.898873 1.896495 3.831287 16.473045 78.766380
4 78.613846 0.087372 -4.898873 1.896495 3.831288 16.473045 78.766380
[pelvis]
3 169.435242 0.051022 0.000000 -0.060465 -0.180225 14.087930 169.435257
4 169.435242 0.051022 0.000000 -0.060465 -0.180225 14.087930 169.435257
[null_rope03_connect]
3 -1.257226 -2.466202 137.391083 -159.503860 -89.311867 -163.586563 137.418976
4 -1.257226 -2.466202 137.391083 -159.503860 -89.311867 -163.586563 137.418976
[null_rope04_connect]
3 -1.259640 -2.480268 -137.844437 -159.503860 -89.311867 -163.586563 137.872513
4 -1.259640 -2.480268 -137.844437 -159.503860 -89.311867 -163.586563 137.872513
[Rope3_Seg01]
3 0.000000 0.000000 0.000000 -130.884644 16.821941 -76.226517 0.000000
4 0.000000 0.000000 0.000000 -130.664581 18.490337 -75.175514 0.000000
[Rope3_Seg02]
3 139.999924 -0.000119 0.000060 0.484780 5.443509 7.749662 139.999924
4 139.999924 -0.000119 0.000060 0.606905 6.067004 7.011534 139.999924
[Rope3_Seg03]
3 139.999924 -0.000119 0.000119 1.456758 8.741705 10.664050 139.999924
4 139.999924 -0.000119 0.000119 1.870406 9.624286 9.690774 139.999924
[Rope3_Seg04]
3 139.999924 0.000119 0.000000 6.179053 15.182592 14.926817 139.999924
4 139.999924 0.000119 0.000000 7.861285 17.028673 13.701014 139.999924
[Rope3_Seg05]
3 139.999924 -0.000238 0.000060 -9.909609 -14.218009 -0.235138 139.999924
4 139.999924 -0.000238 0.000060 -10.697701 -13.782289 1.713547 139.999924
[Rope3_Seg06]
3 139.999893 -0.000119 -0.000060 -3.977594 -18.754616 -8.403807 139.999893
4 139.999893 -0.000119 -0.000060 -5.477514 -18.620035 -5.741260 139.999893
[Rope3_Seg07]
3 139.999771 0.000060 -0.000119 -0.602908 -7.256883 -2.973509 139.999771
4 139.999771 0.000060 -0.000119 -1.025242 -7.099991 -2.060717 139.999771
[Rope3_Seg08]
3 139.999985 -0.000060 0.000000 0.105216 -4.152497 -1.764046 139.999985
4 139.999985 -0.000060 0.000000 -0.126283 -4.081047 -1.270664 139.999985
[Rope3_Seg09]
3 90.185997 -0.000179 -0.000060 89.793228 -1.359877 -0.847183 90.185997
4 90.185997 -0.000179 -0.000060 89.793228 -1.359877 -0.847183 90.185997
[R_rear_hand01]
3 103.366196 -6.073594 -10.757982 -161.551193 16.666374 -30.088671 104.101845
4 103.366196 -6.073594 -10.757982 -161.551193 16.666374 -30.088671 104.101845
[R_rear_hand02]
3 100.509819 12.039542 -7.992327 -34.280552 19.289745 28.875523 101.543350
4 100.509819 12.039542 -7.992327 -34.280552 19.289745 28.875523 101.543350
[R_rear_hand03]
3 101.539970 5.215704 5.435467 83.366440 -30.933914 7.284830 101.819031
4 101.539970 5.215704 5.435467 83.366440 -30.933914 7.284830 101.819031
[Rope4_Seg01]
3 0.000010 0.000038 -0.000114 58.446442 33.409130 -84.354912 0.000121
4 0.000010 0.000038 -0.000114 58.954716 32.309021 -82.394455 0.000121
[Rope4_Seg02]
3 139.999985 0.000060 0.000119 0.697697 -6.472877 -4.591420 139.999985
4 139.999985 0.000060 0.000119 1.052368 -6.458107 -5.434511 139.999985
[Rope4_Seg03]
3 139.999924 0.000000 -0.000238 0.705069 -7.634931 -5.554480 139.999924
4 139.999924 0.000000 -0.000238 0.958990 -7.558817 -6.444182 139.999924
[Rope4_Seg04]
3 139.999985 0.000000 0.000119 1.166276 -11.907934 -11.796315 139.999985
4 139.999985 0.000000 0.000119 1.223388 -11.097181 -12.424807 139.999985
[Rope4_Seg05]
3 139.999802 -0.000060 -0.000119 0.537131 -3.406962 1.128674 139.999802
4 139.999802 -0.000060 -0.000119 0.428818 -3.714777 0.408363 139.999802
[Rope4_Seg06]
3 139.999924 0.000000 0.000060 2.109951 6.721500 16.112825 139.999924
4 139.999924 0.000000 0.000060 1.837107 4.739572 14.606877 139.999924
[Rope4_Seg07]
3 139.999802 0.000000 0.000000 -0.224697 3.841088 10.261105 139.999802
4 139.999802 0.000000 0.000000 -0.006927 2.572811 9.321906 139.999802
[Rope4_Seg08]
3 139.999924 0.000000 0.000119 -2.274154 1.868128 5.933743 139.999924
4 139.999924 0.000000 0.000119 -1.984773 1.144486 5.365796 139.999924
[Rope4_Seg09]
3 90.185791 0.000060 0.000060 -135.617828 2.228885 0.850567 90.185791
4 90.185791 0.000060 0.000060 -135.617828 2.228885 0.850567 90.185791
[L_rear_hand01]
3 101.696655 -8.392275 -7.654577 -34.454281 -18.946800 151.655121 102.329041
4 101.696655 -8.392275 -7.654577 -34.454281 -18.946800 151.655121 102.329041
[L_rear_hand02]
3 102.726799 -1.568258 5.773216 83.407906 30.330435 172.796509 102.900848
4 102.726799 -1.568258 5.773216 83.407906 30.330435 172.796509 102.900848
[L_rear_hand03]
3 104.552910 9.721220 -10.420293 -161.379868 -16.473232 -150.512238 105.519653
4 104.552910 9.721220 -10.420293 -161.379868 -16.473232 -150.512238 105.519653
